<svg width="24" height="26" viewBox="0 0 24 26" fill="none" xmlns="http://www.w3.org/2000/svg">
<path d="M8.25 0.695312V5.61719H6.28125V3.64844H0.375V21.3672H2.34375V22.3516C2.34375 23.1514 2.63086 23.8384 3.20508 24.4126C3.7998 25.0073 4.49707 25.3047 5.29688 25.3047C6.09668 25.3047 6.78369 25.0073 7.35791 24.4126C7.95264 23.8384 8.25 23.1514 8.25 22.3516V21.3672H24V5.61719H20.0625V0.695312H8.25ZM10.2188 2.66406H18.0938V7.58594H10.2188V2.66406ZM2.34375 5.61719H4.3125V19.3984H2.34375V5.61719ZM6.28125 7.58594H8.25V9.55469H20.0625V7.58594H22.0312V19.3984H6.28125V7.58594ZM9.23438 11.5234V13.4922H11.2031V11.5234H9.23438ZM13.1719 11.5234V13.4922H15.1406V11.5234H13.1719ZM17.1094 11.5234V13.4922H19.0781V11.5234H17.1094ZM9.23438 15.4609V17.4297H11.2031V15.4609H9.23438ZM13.1719 15.4609V17.4297H15.1406V15.4609H13.1719ZM17.1094 15.4609V17.4297H19.0781V15.4609H17.1094ZM4.3125 21.3672H6.28125V22.3516C6.28125 22.6182 6.17871 22.854 5.97363 23.0591C5.78906 23.2437 5.56348 23.3359 5.29688 23.3359C5.03027 23.3359 4.79443 23.2437 4.58936 23.0591C4.40479 22.854 4.3125 22.6182 4.3125 22.3516V21.3672Z" fill="white"/>
</svg>
